<svg width="42" height="42" viewBox="0 0 42 42" fill="none" xmlns="http://www.w3.org/2000/svg">
<rect width="42" height="42" rx="8" fill="#A069FF"/>
<path fill-rule="evenodd" clip-rule="evenodd" d="M33.8 21.0002C33.8 24.395 32.4514 27.6507 30.0509 30.0512C27.6505 32.4516 24.3947 33.8002 21 33.8002C17.6052 33.8002 14.3495 32.4516 11.949 30.0512C9.54852 27.6507 8.19995 24.395 8.19995 21.0002C8.19995 17.6054 9.54852 14.3497 11.949 11.9492C14.3495 9.54876 17.6052 8.2002 21 8.2002C24.3947 8.2002 27.6505 9.54876 30.0509 11.9492C32.4514 14.3497 33.8 17.6054 33.8 21.0002ZM16.2 17.8002C16.2 17.3758 16.3685 16.9689 16.6686 16.6688C16.9686 16.3688 17.3756 16.2002 17.8 16.2002C18.2243 16.2002 18.6313 16.3688 18.9313 16.6688C19.2314 16.9689 19.4 17.3758 19.4 17.8002V24.2002C19.4 24.6245 19.2314 25.0315 18.9313 25.3316C18.6313 25.6316 18.2243 25.8002 17.8 25.8002C17.3756 25.8002 16.9686 25.6316 16.6686 25.3316C16.3685 25.0315 16.2 24.6245 16.2 24.2002V17.8002ZM24.2 16.2002C23.7756 16.2002 23.3686 16.3688 23.0686 16.6688C22.7685 16.9689 22.6 17.3758 22.6 17.8002V24.2002C22.6 24.6245 22.7685 25.0315 23.0686 25.3316C23.3686 25.6316 23.7756 25.8002 24.2 25.8002C24.6243 25.8002 25.0313 25.6316 25.3313 25.3316C25.6314 25.0315 25.8 24.6245 25.8 24.2002V17.8002C25.8 17.3758 25.6314 16.9689 25.3313 16.6688C25.0313 16.3688 24.6243 16.2002 24.2 16.2002Z" fill="white"/>
</svg>
