<svg width="42" height="42" viewBox="0 0 42 42" fill="none" xmlns="http://www.w3.org/2000/svg">
<rect width="42" height="42" rx="8" fill="#6994FF"/>
<path d="M21 8.5C27.9037 8.5 33.5 14.0962 33.5 21C33.5 27.9037 27.9037 33.5 21 33.5C14.0962 33.5 8.5 27.9037 8.5 21C8.5 14.0962 14.0962 8.5 21 8.5ZM21 26C20.6685 26 20.3505 26.1317 20.1161 26.3661C19.8817 26.6005 19.75 26.9185 19.75 27.25C19.75 27.5815 19.8817 27.8995 20.1161 28.1339C20.3505 28.3683 20.6685 28.5 21 28.5C21.3315 28.5 21.6495 28.3683 21.8839 28.1339C22.1183 27.8995 22.25 27.5815 22.25 27.25C22.25 26.9185 22.1183 26.6005 21.8839 26.3661C21.6495 26.1317 21.3315 26 21 26ZM21 14.125C19.7982 14.125 18.6457 14.6024 17.7959 15.4522C16.9461 16.3019 16.4687 17.4545 16.4687 18.6562C16.4687 18.9878 16.6004 19.3057 16.8349 19.5401C17.0693 19.7746 17.3872 19.9062 17.7187 19.9062C18.0503 19.9062 18.3682 19.7746 18.6026 19.5401C18.8371 19.3057 18.9687 18.9878 18.9687 18.6562C18.9692 18.2875 19.0699 17.9259 19.2602 17.6101C19.4505 17.2943 19.7232 17.0363 20.049 16.8636C20.3748 16.691 20.7414 16.6103 21.1096 16.6302C21.4778 16.6501 21.8336 16.7699 22.1389 16.9766C22.4442 17.1833 22.6875 17.4692 22.8426 17.8037C22.9978 18.1382 23.059 18.5086 23.0197 18.8752C22.9803 19.2418 22.842 19.5908 22.6194 19.8847C22.3968 20.1787 22.0984 20.4065 21.7562 20.5437C20.9112 20.8812 19.75 21.7462 19.75 23.1875V23.5C19.75 23.8315 19.8817 24.1495 20.1161 24.3839C20.3505 24.6183 20.6685 24.75 21 24.75C21.3315 24.75 21.6495 24.6183 21.8839 24.3839C22.1183 24.1495 22.25 23.8315 22.25 23.5C22.25 23.195 22.3125 23.0425 22.5762 22.9125L22.685 22.8625C23.661 22.4699 24.4701 21.7499 24.9734 20.8261C25.4768 19.9024 25.6431 18.8322 25.4439 17.7992C25.2447 16.7662 24.6923 15.8347 23.8816 15.1643C23.0708 14.494 22.052 14.1265 21 14.125Z" fill="white"/>
</svg>
