<svg width="42" height="42" viewBox="0 0 42 42" fill="none" xmlns="http://www.w3.org/2000/svg">
<rect width="42" height="42" rx="8" fill="#A069FF"/>
<path fill-rule="evenodd" clip-rule="evenodd" d="M21.5707 7.66663C20.0853 7.66663 18.732 8.46663 16.028 10.0693L15.1133 10.6106C12.4067 12.2133 11.056 13.0146 10.3133 14.3333C9.57068 15.6533 9.57068 17.2533 9.57068 20.4586V21.5413C9.57068 24.7453 9.57068 26.348 10.3133 27.6666C11.056 28.9853 12.4067 29.7866 15.1133 31.388L16.028 31.9306C18.732 33.532 20.0853 34.3333 21.5707 34.3333C23.056 34.3333 24.408 33.5333 27.1133 31.9306L28.028 31.388C30.732 29.788 32.0853 28.9853 32.828 27.6666C33.5707 26.3466 33.5707 24.7466 33.5707 21.5413V20.4586C33.5707 17.2546 33.5707 15.652 32.828 14.3333C32.0853 13.0146 30.732 12.2133 28.028 10.6106L27.1133 10.0693C24.4067 8.46796 23.056 7.66663 21.5707 7.66663ZM16.5707 21C16.5707 19.6739 17.0975 18.4021 18.0351 17.4644C18.9728 16.5267 20.2446 16 21.5707 16C22.8968 16 24.1685 16.5267 25.1062 17.4644C26.0439 18.4021 26.5707 19.6739 26.5707 21C26.5707 22.326 26.0439 23.5978 25.1062 24.5355C24.1685 25.4732 22.8968 26 21.5707 26C20.2446 26 18.9728 25.4732 18.0351 24.5355C17.0975 23.5978 16.5707 22.326 16.5707 21Z" fill="white"/>
</svg>
